<svg width="30" height="30" viewBox="0 0 30 30" fill="none" xmlns="http://www.w3.org/2000/svg">
<g clip-path="url(#clip0_7_110)">
<path d="M15 0C11.0227 0 7.20469 1.58133 4.39453 4.39336C1.58148 7.20651 0.000779226 11.0217 0 15C0 18.9766 1.58203 22.7946 4.39453 25.6066C7.20469 28.4187 11.0227 30 15 30C18.9773 30 22.7953 28.4187 25.6055 25.6066C28.418 22.7946 30 18.9766 30 15C30 11.0234 28.418 7.20539 25.6055 4.39336C22.7953 1.58133 18.9773 0 15 0Z" fill="url(#paint0_linear_7_110)"/>
<path d="M6.7898 14.8416C11.1632 12.9366 14.0789 11.6805 15.5367 11.0737C19.7039 9.34101 20.5687 9.04007 21.1336 9.02987C21.2578 9.02788 21.5343 9.05858 21.7148 9.20448C21.8648 9.32753 21.907 9.49394 21.9281 9.61077C21.9468 9.72749 21.9726 9.99351 21.9515 10.2012C21.7265 12.573 20.7492 18.3288 20.2523 20.9855C20.0437 22.1095 19.6289 22.4864 19.2281 22.5232C18.3562 22.6033 17.6953 21.9476 16.8515 21.3947C15.532 20.5291 14.7867 19.9905 13.5046 19.1461C12.0234 18.1701 12.9843 17.6337 13.8281 16.7571C14.0484 16.5276 17.8875 13.0366 17.9601 12.72C17.9695 12.6804 17.9789 12.5327 17.8898 12.4549C17.8031 12.3769 17.6742 12.4036 17.5804 12.4247C17.4468 12.4547 15.3398 13.8487 11.2523 16.6066C10.6546 17.0177 10.1132 17.2181 9.62574 17.2076C9.09137 17.1961 8.06012 16.9048 7.29371 16.6559C6.35621 16.3505 5.60855 16.189 5.67418 15.6703C5.70699 15.4003 6.07965 15.124 6.7898 14.8416Z" fill="white"/>
</g>
<defs>
<linearGradient id="paint0_linear_7_110" x1="1500" y1="0" x2="1500" y2="3000" gradientUnits="userSpaceOnUse">
<stop stop-color="#2AABEE"/>
<stop offset="1" stop-color="#229ED9"/>
</linearGradient>
<clipPath id="clip0_7_110">
<rect width="30" height="30" fill="white"/>
</clipPath>
</defs>
</svg>
