<svg width="30" height="30" viewBox="0 0 30 30" fill="none" xmlns="http://www.w3.org/2000/svg">
<g clip-path="url(#clip0_7_97)">
<path d="M11.8612 0.0049707L12.7725 0.0012207H17.2275L18.14 0.0049707L19.2825 0.0174707L19.8237 0.0262207L20.3463 0.0399707L20.85 0.0574707L21.335 0.0774707L21.8025 0.103721L22.2525 0.134971L22.6838 0.172471L23.1 0.213721C25.275 0.458721 26.7663 0.983721 27.8913 2.10872C29.0162 3.23372 29.5413 4.72372 29.7863 6.89997L29.8288 7.31622L29.865 7.74872L29.8962 8.19872L29.9212 8.66497L29.9525 9.39997L29.9675 9.91247L29.9837 10.7175L29.995 11.8612L30 13.0862L29.9988 17.2275L29.995 18.14L29.9825 19.2825L29.9738 19.8237L29.96 20.3462L29.9425 20.85L29.9225 21.335L29.8962 21.8025L29.865 22.2525L29.8275 22.6837L29.7863 23.1C29.5413 25.275 29.0162 26.7662 27.8913 27.8912C26.7663 29.0162 25.2762 29.5412 23.1 29.7862L22.6838 29.8287L22.2513 29.865L21.8013 29.8962L21.335 29.9212L20.6 29.9525L20.0875 29.9675L19.2825 29.9837L18.1388 29.995L16.9137 30L12.7725 29.9987L11.86 29.995L10.7175 29.9825L10.1762 29.9737L9.65375 29.96L9.15 29.9425L8.665 29.9225L8.1975 29.8962L7.7475 29.865L7.31625 29.8275L6.9 29.7862C4.725 29.5412 3.23375 29.0162 2.10875 27.8912C0.98375 26.7662 0.45875 25.2762 0.21375 23.1L0.17125 22.6837L0.135 22.2512L0.10375 21.8012L0.07875 21.335L0.0475 20.6L0.0325 20.0875L0.01625 19.2825L0.005 18.1387L0 16.9137L0.00125 12.7725L0.005 11.86L0.0175 10.7175L0.02625 10.1762L0.04 9.65372L0.0575 9.14997L0.0775 8.66497L0.10375 8.19747L0.135 7.74747L0.1725 7.31622L0.21375 6.89997C0.45875 4.72497 0.98375 3.23372 2.10875 2.10872C3.23375 0.983721 4.72375 0.458721 6.9 0.213721L7.31625 0.171221L7.74875 0.134971L8.19875 0.103721L8.665 0.0787207L9.4 0.0474707L9.9125 0.0324707L10.7175 0.0162207L11.8612 0.0049707ZM8.4875 9.12497H5.0625C5.225 16.925 9.125 21.6125 15.9625 21.6125H16.35V17.15C18.8625 17.4 20.7625 19.2375 21.525 21.6125H25.075C24.1 18.0625 21.5375 16.1 19.9375 15.35C21.5375 14.425 23.7875 12.175 24.325 9.12497H21.1C20.4 11.6 18.325 13.85 16.35 14.0625V9.12497H13.125V17.775C11.125 17.275 8.6 14.85 8.4875 9.12497Z" fill="#0400D5"/>
</g>
<defs>
<clipPath id="clip0_7_97">
<rect width="30" height="30" fill="white"/>
</clipPath>
</defs>
</svg>
